# xmcd
#
# Track frame offsets:
#	150
#	24249
#	44030
#	63985
#	82796
#	106902
#	131476
#	152339
#	167558
#	190448
#	209800
#	225263
#	246430
#
# Disc length: 3507 seconds
#
# Revision: 0
# Processed by: cddbd v1.5.2PL0 Copyright (c) Steve Scherf et al.
# Submitted via: EasyCDDAExtractor 9.0.0.1
#
DISCID=a40db10d
DTITLE=Fayerwerk - WINIEN JESTES TY!
DYEAR=2011
DGENRE=ountry Rock
TTITLE0=Nasz Orient Express
TTITLE1=Winien jestes Ty!
TTITLE2=Ballada farmerska
TTITLE3=Pojde do niego
TTITLE4=Moj drogowskaz
TTITLE5=W kabinie radio gra
TTITLE6=Bo tak czasem
TTITLE7=Milosc w kapeluszu
TTITLE8=On mi sie sni
TTITLE9=Kilka cieplych nut
TTITLE10=Zaspiewac czas
TTITLE11=Za nami kurz
TTITLE12=Dran 2009
EXTD=
EXTT0=
EXTT1=
EXTT2=
EXTT3=
EXTT4=
EXTT5=
EXTT6=
EXTT7=
EXTT8=
EXTT9=
EXTT10=
EXTT11=
EXTT12=
PLAYORDER=
